<?xml version="1.0" standalone="no"?>
<!DOCTYPE svg PUBLIC "-//W3C//DTD SVG 20010904//EN"
 "http://www.w3.org/TR/2001/REC-SVG-20010904/DTD/svg10.dtd">
<svg version="1.0" xmlns="http://www.w3.org/2000/svg"
 width="1024.000000pt" height="1024.000000pt" viewBox="0 0 1024.000000 1024.000000"
 preserveAspectRatio="xMidYMid meet">

<g transform="translate(0.000000,1024.000000) scale(0.100000,-0.100000)"
fill="#000000" stroke="none">
<path d="M5413 8766 c-18 -6 -35 -15 -39 -19 -4 -4 -18 -7 -31 -7 -12 0 -23
-4 -23 -10 0 -5 -5 -10 -11 -10 -26 0 -115 -74 -259 -215 -85 -83 -202 -196
-259 -250 -220 -212 -1798 -1792 -1826 -1830 -17 -22 -40 -50 -52 -62 -12 -12
-24 -32 -28 -43 -3 -11 -9 -20 -13 -20 -4 0 -18 -18 -32 -40 -14 -22 -28 -40
-32 -40 -5 0 -8 -5 -8 -11 0 -5 -18 -37 -40 -69 -22 -32 -40 -64 -40 -69 0 -6
-4 -11 -10 -11 -5 0 -10 -9 -10 -19 0 -11 -3 -21 -7 -23 -11 -4 -53 -87 -53
-104 0 -8 -4 -14 -10 -14 -5 0 -10 -9 -10 -20 0 -11 -4 -28 -9 -38 -5 -9 -14
-30 -21 -47 -7 -16 -16 -38 -21 -47 -5 -10 -9 -29 -9 -43 0 -14 -4 -25 -10
-25 -5 0 -10 -13 -10 -29 0 -17 -4 -32 -9 -35 -5 -3 -11 -20 -14 -38 -4 -18
-11 -58 -17 -88 -25 -123 -52 -361 -52 -460 0 -36 5 -103 11 -150 6 -47 14
-107 17 -135 3 -27 10 -54 15 -60 5 -5 9 -24 9 -41 0 -18 5 -36 10 -39 6 -3
10 -17 10 -30 0 -13 5 -27 10 -30 6 -3 10 -15 10 -26 0 -10 4 -27 9 -37 5 -9
19 -39 31 -67 27 -61 67 -143 104 -211 14 -28 24 -58 21 -66 -7 -17 -61 -38
-101 -38 -30 0 -98 -21 -110 -33 -4 -4 -18 -7 -31 -7 -13 0 -23 -4 -23 -10 0
-5 -13 -10 -29 -10 -17 0 -33 -4 -36 -10 -3 -5 -15 -10 -26 -10 -10 0 -27 -4
-37 -9 -9 -5 -29 -14 -44 -20 -16 -6 -40 -16 -55 -22 -16 -6 -36 -15 -45 -20
-10 -5 -25 -9 -33 -9 -8 0 -15 -4 -15 -10 0 -5 -9 -10 -20 -10 -11 0 -20 -4
-20 -10 0 -5 -9 -10 -20 -10 -11 0 -20 -3 -20 -8 0 -4 -13 -13 -28 -20 -89
-39 -152 -131 -152 -221 0 -60 14 -82 65 -109 23 -12 236 -54 362 -72 l81 -12
-5 -37 c-4 -20 -9 -38 -12 -41 -6 -5 -17 -24 -45 -75 -6 -11 -13 -22 -16 -25
-3 -3 -21 -34 -39 -70 -19 -36 -43 -80 -53 -98 -10 -18 -18 -41 -18 -52 0 -11
-4 -20 -10 -20 -5 0 -10 -13 -10 -29 0 -17 -4 -33 -10 -36 -5 -3 -10 -21 -10
-40 0 -19 -4 -37 -10 -40 -28 -17 5 -115 47 -142 41 -27 141 -22 228 11 74 28
230 110 359 187 l80 48 12 -36 c9 -26 10 -54 3 -107 -18 -129 -21 -189 -10
-225 5 -20 13 -48 16 -63 7 -36 40 -66 87 -80 31 -9 45 -8 82 6 107 41 275
293 364 546 73 209 83 236 90 247 5 9 40 -4 122 -45 424 -212 844 -288 1298
-236 353 40 610 136 925 346 l152 101 1124 1121 c734 733 1137 1142 1162 1181
62 93 84 178 83 315 -1 63 -7 142 -14 175 -73 351 -322 777 -715 1222 -136
154 -419 429 -565 549 -19 16 -37 31 -40 34 -3 3 -30 25 -60 50 -30 25 -57 47
-60 51 -12 13 -142 110 -215 159 -44 30 -89 62 -99 72 -11 10 -26 18 -33 18
-7 0 -13 4 -13 9 0 5 -8 11 -17 14 -18 6 -73 37 -83 47 -11 11 -70 42 -200
106 -74 36 -143 70 -152 75 -10 5 -25 9 -33 9 -8 0 -15 4 -15 8 0 4 -21 14
-47 21 -27 8 -52 17 -58 21 -5 3 -30 12 -55 19 -25 7 -55 17 -68 22 -13 5 -36
9 -52 9 -16 0 -32 5 -35 10 -9 14 -272 11 -312 -4z m398 -213 c136 -50 446
-204 581 -290 309 -195 592 -416 823 -640 108 -104 278 -285 298 -317 10 -15
67 -87 125 -160 120 -150 119 -148 204 -271 34 -49 64 -92 67 -95 3 -3 12 -17
20 -32 8 -16 18 -28 23 -28 4 0 8 -5 8 -10 0 -6 17 -38 38 -73 36 -61 56 -100
73 -144 17 -44 31 -78 40 -95 5 -10 9 -31 9 -47 0 -17 5 -33 10 -36 6 -3 10
-24 10 -45 0 -21 5 -42 10 -45 6 -4 10 -58 10 -128 0 -96 -4 -134 -19 -175
-22 -59 -82 -122 -116 -122 -12 0 -26 -5 -32 -11 -18 -18 -335 1 -357 22 -6 5
-22 9 -37 9 -15 0 -31 5 -34 10 -3 6 -19 10 -35 10 -16 0 -32 5 -35 10 -3 6
-15 10 -26 10 -10 0 -27 4 -37 9 -23 12 -59 26 -102 41 -51 18 -284 133 -288
142 -2 4 -12 8 -23 8 -10 0 -19 5 -19 10 0 6 -5 10 -10 10 -20 0 -233 141
-368 242 -57 43 -106 78 -109 78 -3 0 -13 8 -22 18 -9 10 -56 52 -106 94 -120
101 -390 378 -496 508 -178 218 -308 419 -279 428 32 10 79 74 99 134 23 66
29 115 11 88 -7 -11 -10 3 -10 45 -1 144 -77 308 -176 376 -50 34 -77 36 -106
9 -12 -11 -32 -20 -44 -20 -12 0 -29 -3 -37 -6 -12 -4 -18 10 -28 67 -16 88
-1 231 34 317 19 49 30 61 77 90 77 46 103 52 196 47 61 -3 106 -13 185 -42z
m-691 -271 c0 -10 4 -22 9 -27 5 -6 12 -55 14 -110 6 -111 26 -237 46 -290 5
-11 14 -38 20 -60 13 -41 18 -56 41 -110 7 -16 16 -39 20 -50 13 -36 132 -269
151 -297 11 -14 19 -29 19 -32 0 -4 21 -39 48 -79 26 -40 52 -80 57 -89 91
-145 219 -292 490 -563 430 -432 759 -660 1246 -866 173 -73 291 -106 423
-119 55 -5 101 -12 103 -14 9 -8 -51 -92 -86 -121 -19 -16 -54 -50 -76 -74
-76 -84 -170 -176 -235 -231 -35 -30 -86 -77 -113 -105 -202 -207 -1394 -1398
-1428 -1427 -24 -21 -49 -38 -56 -38 -7 0 -13 -4 -13 -8 0 -4 -12 -15 -27 -24
-16 -9 -41 -28 -58 -42 -16 -14 -36 -26 -42 -26 -7 0 -13 -4 -13 -9 0 -5 -8
-11 -17 -14 -24 -8 -77 -40 -81 -49 -2 -5 -12 -8 -23 -8 -10 0 -19 -3 -19 -8
0 -4 -15 -13 -32 -20 -18 -8 -44 -18 -58 -24 -14 -6 -36 -15 -50 -21 -14 -5
-33 -13 -42 -18 -10 -5 -29 -9 -42 -9 -14 0 -28 -5 -31 -10 -3 -5 -21 -10 -39
-10 -17 0 -36 -4 -42 -9 -5 -5 -27 -11 -49 -14 -70 -10 -109 -18 -130 -27 -33
-15 -156 -22 -400 -22 -235 0 -343 7 -359 23 -6 5 -23 9 -40 9 -16 0 -43 4
-60 9 -17 5 -51 15 -76 21 -25 7 -54 16 -65 20 -11 4 -36 13 -55 20 -95 33
-278 123 -352 172 -31 21 -61 38 -67 38 -5 0 -11 4 -13 8 -1 4 -35 33 -74 64
-200 159 -417 403 -527 593 -206 358 -298 705 -268 1018 23 245 80 460 179
684 117 261 122 267 1265 1405 557 555 1015 1008 1020 1008 4 0 7 -8 7 -18z
m351 -403 c25 -17 89 -135 89 -163 0 -7 -11 -23 -25 -36 -31 -29 -46 -19 -86
64 -33 67 -44 115 -34 145 7 22 10 21 56 -10z m-2576 -4025 c55 -78 271 -302
363 -376 62 -49 72 -69 53 -106 -39 -77 -51 -106 -51 -122 0 -11 -4 -22 -10
-25 -5 -3 -10 -15 -10 -26 0 -10 -4 -27 -9 -37 -9 -18 -26 -58 -44 -102 -5
-14 -13 -33 -18 -42 -5 -10 -9 -27 -9 -38 0 -11 -4 -20 -10 -20 -5 0 -10 -8
-10 -19 0 -31 -26 -72 -61 -93 l-32 -20 8 154 c10 201 9 254 -6 289 -21 52
-43 55 -118 18 -36 -19 -72 -39 -79 -46 -7 -7 -17 -13 -22 -13 -5 0 -15 -6
-22 -13 -22 -22 -106 -77 -117 -77 -6 0 -11 -3 -11 -7 0 -5 -23 -19 -50 -32
-28 -14 -50 -29 -50 -33 0 -4 -9 -8 -20 -8 -11 0 -20 -4 -20 -10 0 -5 -9 -10
-20 -10 -11 0 -20 -4 -20 -10 0 -5 -9 -10 -20 -10 -11 0 -20 -4 -20 -10 0 -5
-20 -10 -44 -10 l-43 0 7 38 c3 20 15 53 25 72 19 39 132 196 237 334 92 119
101 164 41 197 -25 14 -63 19 -185 23 -180 5 -283 17 -300 34 -6 6 -20 12 -30
12 -28 0 -21 18 14 40 44 27 329 117 456 145 116 25 156 38 167 55 6 10 43
-30 90 -96z"/>
<path d="M5999 8117 c-41 -40 -59 -66 -59 -87 0 -10 -4 -22 -10 -25 -5 -3 -10
-44 -10 -90 0 -70 5 -94 26 -141 49 -107 188 -229 301 -264 123 -38 238 -23
304 40 58 55 72 131 43 231 -19 65 -45 109 -99 168 -67 74 -212 171 -255 171
-10 0 -22 5 -25 10 -3 6 -48 10 -99 10 -84 0 -95 -2 -117 -23z m247 -185 c42
-22 110 -86 151 -141 45 -59 54 -99 27 -122 -67 -55 -292 86 -335 211 -23 65
74 97 157 52z"/>
<path d="M6949 7497 c-44 -38 -53 -65 -51 -163 1 -73 6 -103 25 -146 45 -100
123 -168 259 -221 77 -31 143 -34 212 -11 67 23 80 47 73 142 -10 146 -49 224
-160 313 -32 25 -79 56 -105 69 -26 12 -55 26 -64 31 -10 5 -50 9 -90 9 -61 0
-77 -4 -99 -23z m194 -151 c66 -27 155 -153 143 -202 -5 -20 -13 -24 -44 -24
-30 0 -47 9 -88 45 -77 67 -104 137 -67 177 19 22 16 21 56 4z"/>
<path d="M6525 7027 c-62 -38 -78 -53 -101 -88 -13 -21 -24 -46 -24 -56 0 -9
-5 -31 -12 -49 -23 -64 34 -186 135 -288 124 -126 243 -188 358 -188 129 0
209 75 209 195 0 101 -55 206 -174 334 -92 99 -186 147 -295 150 -48 2 -84 -2
-96 -10z m210 -216 c109 -52 185 -140 185 -215 0 -43 -16 -56 -67 -56 -83 0
-213 77 -263 157 -76 120 3 182 145 114z"/>
<path d="M7051 5268 c-70 -50 -1309 -1292 -1316 -1320 -10 -40 19 -61 74 -55
46 4 51 9 571 529 289 288 578 570 644 627 65 57 127 118 137 135 24 39 24 78
1 99 -27 25 -61 20 -111 -15z"/>
<path d="M5469 3777 c-45 -44 -88 -74 -144 -101 -44 -21 -88 -42 -97 -47 -10
-5 -29 -9 -42 -9 -14 0 -28 -4 -31 -10 -3 -5 -21 -10 -39 -10 -17 0 -36 -4
-42 -9 -12 -12 -82 -19 -280 -30 -89 -5 -177 -12 -195 -16 -75 -16 -101 -78
-54 -129 24 -26 29 -27 93 -22 37 3 110 8 162 11 288 18 508 82 684 199 92 61
146 116 146 147 0 28 -26 75 -45 83 -35 13 -54 4 -116 -57z"/>
</g>
</svg>
